<svg xmlns="http://www.w3.org/2000/svg" viewBox="0 0 800 380">
  <defs>
    <radialGradient id="s1-bg" cx="35%" cy="50%" r="75%">
      <stop offset="0%" stop-color="#0d1f45"/>
      <stop offset="100%" stop-color="#020810"/>
    </radialGradient>
    <radialGradient id="s1-earth" cx="38%" cy="32%" r="65%">
      <stop offset="0%" stop-color="#5baeff"/>
      <stop offset="20%" stop-color="#2277cc"/>
      <stop offset="55%" stop-color="#0d5ba0"/>
      <stop offset="100%" stop-color="#051830"/>
    </radialGradient>
    <radialGradient id="s1-atmo" cx="50%" cy="50%" r="50%">
      <stop offset="72%" stop-color="rgba(0,0,0,0)"/>
      <stop offset="87%" stop-color="rgba(59,130,246,0.28)"/>
      <stop offset="100%" stop-color="rgba(59,130,246,0)"/>
    </radialGradient>
    <radialGradient id="s1-shadow" cx="72%" cy="72%" r="55%">
      <stop offset="40%" stop-color="rgba(0,0,0,0)"/>
      <stop offset="100%" stop-color="rgba(0,0,8,0.55)"/>
    </radialGradient>
    <filter id="s1-glow" x="-80%" y="-80%" width="260%" height="260%">
      <feGaussianBlur in="SourceGraphic" stdDeviation="2.5" result="blur"/>
      <feMerge><feMergeNode in="blur"/><feMergeNode in="SourceGraphic"/></feMerge>
    </filter>
    <filter id="s1-earthglow" x="-15%" y="-15%" width="130%" height="130%">
      <feGaussianBlur in="SourceGraphic" stdDeviation="6" result="blur"/>
      <feMerge><feMergeNode in="blur"/><feMergeNode in="SourceGraphic"/></feMerge>
    </filter>
  </defs>

  <!-- Background -->
  <rect width="800" height="380" fill="url(#s1-bg)"/>

  <!-- Stars layer 1 (bright) -->
  <circle cx="48" cy="22" r="1.4" fill="white" opacity="0.9"/>
  <circle cx="135" cy="48" r="1" fill="white" opacity="0.7"/>
  <circle cx="490" cy="18" r="1.3" fill="white" opacity="0.85"/>
  <circle cx="620" cy="35" r="1" fill="white" opacity="0.6"/>
  <circle cx="710" cy="15" r="1.5" fill="white" opacity="0.9"/>
  <circle cx="770" cy="60" r="1" fill="white" opacity="0.7"/>
  <circle cx="750" cy="280" r="1.4" fill="white" opacity="0.8"/>
  <circle cx="795" cy="180" r="1.2" fill="white" opacity="0.65"/>
  <circle cx="680" cy="340" r="1" fill="white" opacity="0.7"/>
  <circle cx="555" cy="360" r="1.3" fill="white" opacity="0.75"/>
  <!-- Stars layer 2 (dim) -->
  <circle cx="80" cy="340" r="0.8" fill="white" opacity="0.5"/>
  <circle cx="30" cy="290" r="0.8" fill="white" opacity="0.45"/>
  <circle cx="170" cy="320" r="0.7" fill="white" opacity="0.4"/>
  <circle cx="580" cy="355" r="0.8" fill="white" opacity="0.5"/>
  <circle cx="640" cy="80" r="0.7" fill="white" opacity="0.4"/>
  <circle cx="720" cy="120" r="0.8" fill="white" opacity="0.45"/>
  <circle cx="760" cy="200" r="0.6" fill="white" opacity="0.35"/>
  <circle cx="800" cy="310" r="0.7" fill="white" opacity="0.4"/>

  <!-- Atmosphere glow (outer ring) -->
  <circle cx="235" cy="188" r="152" fill="url(#s1-atmo)"/>
  <circle cx="235" cy="188" r="128" fill="none" stroke="#3b82f6" stroke-width="5" opacity="0.12"/>

  <!-- Earth -->
  <circle cx="235" cy="188" r="118" fill="url(#s1-earth)" filter="url(#s1-earthglow)"/>

  <!-- Continents (simplified) -->
  <path d="M205 162 Q218 155 228 162 Q235 172 233 192 Q230 214 220 224 Q210 228 205 218 Q199 204 202 185 Q203 172 205 162Z" fill="#2d8a3e" opacity="0.78"/>
  <path d="M178 148 Q190 140 202 143 Q210 148 210 158 Q205 164 196 162 Q185 158 178 152Z" fill="#2d8a3e" opacity="0.7"/>
  <path d="M250 155 Q262 150 270 158 Q276 168 273 182 Q270 196 262 203 Q254 206 250 197 Q246 186 247 172 Q248 162 250 155Z" fill="#2d8a3e" opacity="0.68"/>
  <path d="M248 142 Q258 138 265 145 Q262 154 254 156 Q247 153 248 142Z" fill="#2d8a3e" opacity="0.62"/>
  <path d="M155 200 Q162 195 170 200 Q175 210 170 220 Q163 225 157 218 Q152 208 155 200Z" fill="#2d8a3e" opacity="0.55"/>
  <!-- Ocean shimmer -->
  <ellipse cx="210" cy="168" rx="22" ry="14" fill="white" opacity="0.055" transform="rotate(-20,210,168)"/>

  <!-- Earth shadow -->
  <circle cx="235" cy="188" r="118" fill="url(#s1-shadow)"/>

  <!-- LEO orbit ring -->
  <ellipse cx="235" cy="188" rx="172" ry="52" fill="none" stroke="#64748b" stroke-width="0.8" stroke-dasharray="7 5" opacity="0.5" transform="rotate(-14,235,188)"/>
  <!-- MEO orbit ring -->
  <ellipse cx="235" cy="188" rx="222" ry="68" fill="none" stroke="#475569" stroke-width="0.8" stroke-dasharray="5 7" opacity="0.38" transform="rotate(-9,235,188)"/>
  <!-- GEO orbit ring -->
  <ellipse cx="235" cy="188" rx="268" ry="80" fill="none" stroke="#334155" stroke-width="0.7" stroke-dasharray="4 9" opacity="0.28"/>

  <!-- Debris — LEO ring -->
  <g filter="url(#s1-glow)">
    <circle cx="74" cy="172" r="4.5" fill="#ef4444"/>
    <circle cx="80" cy="212" r="3.2" fill="#f97316" opacity="0.92"/>
    <circle cx="397" cy="168" r="4.8" fill="#ef4444"/>
    <circle cx="392" cy="210" r="3.5" fill="#f97316" opacity="0.88"/>
    <circle cx="235" cy="64" r="3.8" fill="#ef4444" opacity="0.95"/>
    <circle cx="232" cy="318" r="3.2" fill="#f97316" opacity="0.88"/>
    <circle cx="143" cy="98" r="3.8" fill="#fbbf24" opacity="0.9"/>
    <circle cx="328" cy="96" r="3.2" fill="#ef4444" opacity="0.88"/>
    <circle cx="140" cy="280" r="4.2" fill="#ef4444" opacity="0.92"/>
    <circle cx="326" cy="278" r="3" fill="#fbbf24" opacity="0.82"/>
    <circle cx="110" cy="145" r="2.8" fill="#ef4444" opacity="0.85"/>
    <circle cx="362" cy="238" r="2.8" fill="#f97316" opacity="0.8"/>
  </g>

  <!-- Debris — outer rings (smaller) -->
  <g filter="url(#s1-glow)" opacity="0.8">
    <circle cx="22" cy="162" r="3" fill="#ef4444"/>
    <circle cx="32" cy="228" r="2.4" fill="#f97316"/>
    <circle cx="448" cy="150" r="3.2" fill="#ef4444"/>
    <circle cx="450" cy="232" r="2.4" fill="#fbbf24"/>
    <circle cx="235" cy="14" r="2.8" fill="#ef4444"/>
    <circle cx="238" cy="365" r="2.4" fill="#f97316"/>
    <circle cx="100" cy="56" r="2.4" fill="#fbbf24"/>
    <circle cx="372" cy="58" r="2.8" fill="#ef4444"/>
    <circle cx="96" cy="320" r="2.4" fill="#ef4444"/>
    <circle cx="368" cy="322" r="2.8" fill="#f97316"/>
    <circle cx="60" cy="100" r="1.8" fill="#fbbf24"/>
    <circle cx="415" cy="102" r="2.2" fill="#ef4444"/>
    <circle cx="58" cy="275" r="1.8" fill="#ef4444"/>
    <circle cx="412" cy="270" r="2.2" fill="#fbbf24"/>
  </g>

  <!-- Debris — very outer (faint dots) -->
  <g opacity="0.55">
    <circle cx="8" cy="188" r="1.8" fill="#f97316"/>
    <circle cx="465" cy="188" r="1.8" fill="#ef4444"/>
    <circle cx="115" cy="38" r="1.6" fill="#ef4444"/>
    <circle cx="358" cy="38" r="1.6" fill="#f97316"/>
    <circle cx="113" cy="340" r="1.6" fill="#fbbf24"/>
    <circle cx="355" cy="342" r="1.6" fill="#ef4444"/>
  </g>

  <!-- Divider -->
  <line x1="488" y1="20" x2="488" y2="360" stroke="#1e293b" stroke-width="1" opacity="0.8"/>

  <!-- Right panel -->
  <rect x="502" y="30" width="278" height="320" rx="10" fill="rgba(8,18,36,0.93)" stroke="#1e3a5f" stroke-width="1.2"/>

  <!-- Panel accent line -->
  <rect x="502" y="30" width="4" height="320" rx="2" fill="#2563eb"/>

  <!-- Panel title -->
  <text x="522" y="62" font-family="'Space Grotesk',Inter,sans-serif" font-size="11" fill="#2563eb" font-weight="700" letter-spacing="2">O PROBLEMA</text>
  <text x="522" y="84" font-family="'Space Grotesk',Inter,sans-serif" font-size="16" fill="#f1f5f9" font-weight="800">Detritos em Órbita</text>
  <line x1="522" y1="94" x2="766" y2="94" stroke="#1e3a5f" stroke-width="1"/>

  <!-- Stat 1 -->
  <text x="522" y="122" font-family="Inter,sans-serif" font-size="9.5" fill="#64748b" letter-spacing="1.5">DETRITOS RASTREADOS</text>
  <text x="522" y="152" font-family="'Space Grotesk',Inter,sans-serif" font-size="36" fill="#2563eb" font-weight="800">~27.000</text>
  <text x="522" y="170" font-family="Inter,sans-serif" font-size="10" fill="#475569">catalogados pela NORAD em órbita terrestre</text>
  <line x1="522" y1="182" x2="766" y2="182" stroke="#1e293b" stroke-width="1"/>

  <!-- Stat 2 -->
  <text x="522" y="205" font-family="Inter,sans-serif" font-size="9.5" fill="#64748b" letter-spacing="1.5">FRAGMENTOS INVISÍVEIS</text>
  <text x="522" y="236" font-family="'Space Grotesk',Inter,sans-serif" font-size="34" fill="#dc2626" font-weight="800">500.000+</text>
  <text x="522" y="253" font-family="Inter,sans-serif" font-size="10" fill="#475569">pequenos demais para o radar, mas letais</text>
  <line x1="522" y1="265" x2="766" y2="265" stroke="#1e293b" stroke-width="1"/>

  <!-- Stat 3 -->
  <text x="522" y="288" font-family="Inter,sans-serif" font-size="9.5" fill="#64748b" letter-spacing="1.5">VELOCIDADE EM LEO</text>
  <text x="522" y="315" font-family="'Space Grotesk',Inter,sans-serif" font-size="28" fill="#f1f5f9" font-weight="800">27.000 km/h</text>
  <text x="522" y="332" font-family="Inter,sans-serif" font-size="10" fill="#475569">energia cinética maior que uma bala</text>

  <!-- Footer tag -->
  <rect x="522" y="316" width="120" height="20" rx="4" fill="rgba(37,99,235,0.15)" stroke="#2563eb" stroke-width="0.8"/>
  <text x="582" y="330" text-anchor="middle" font-family="Inter,sans-serif" font-size="9.5" fill="#2563eb" font-weight="600">ODS 9 · FIAP 2026</text>
</svg>
