<svg xmlns="http://www.w3.org/2000/svg" viewBox="0 0 800 380" style="background:#0a1628">
  <!-- Earth -->
  <circle cx="400" cy="190" r="120" fill="#1e3a5f" stroke="#2563eb" stroke-width="2"/>
  <ellipse cx="400" cy="190" rx="120" ry="40" fill="none" stroke="#2563eb" stroke-width="1" opacity="0.4"/>
  <!-- Continents simplified -->
  <ellipse cx="370" cy="170" rx="35" ry="25" fill="#16a34a" opacity="0.7"/>
  <ellipse cx="420" cy="200" rx="20" ry="30" fill="#16a34a" opacity="0.6"/>
  <!-- LEO orbit ring -->
  <ellipse cx="400" cy="190" rx="185" ry="60" fill="none" stroke="#94a3b8" stroke-width="1" stroke-dasharray="6 4" opacity="0.5"/>
  <!-- MEO orbit ring -->
  <ellipse cx="400" cy="190" rx="245" ry="80" fill="none" stroke="#64748b" stroke-width="1" stroke-dasharray="4 6" opacity="0.35"/>
  <!-- Debris particles -->
  <circle cx="240" cy="155" r="4" fill="#dc2626"/>
  <circle cx="560" cy="145" r="3" fill="#dc2626"/>
  <circle cx="490" cy="255" r="4" fill="#dc2626"/>
  <circle cx="310" cy="248" r="3" fill="#dc2626"/>
  <circle cx="220" cy="200" r="3" fill="#dc2626" opacity="0.8"/>
  <circle cx="580" cy="205" r="3" fill="#dc2626" opacity="0.8"/>
  <circle cx="435" cy="120" r="3" fill="#dc2626" opacity="0.9"/>
  <circle cx="365" cy="265" r="4" fill="#dc2626" opacity="0.9"/>
  <circle cx="155" cy="170" r="3" fill="#f97316" opacity="0.7"/>
  <circle cx="645" cy="210" r="3" fill="#f97316" opacity="0.7"/>
  <circle cx="460" cy="110" r="2" fill="#fbbf24" opacity="0.8"/>
  <circle cx="340" cy="275" r="2" fill="#fbbf24" opacity="0.8"/>
  <circle cx="185" cy="235" r="2" fill="#fbbf24" opacity="0.6"/>
  <circle cx="615" cy="155" r="2" fill="#fbbf24" opacity="0.6"/>
  <!-- Stars -->
  <circle cx="60" cy="30" r="1.5" fill="white" opacity="0.6"/>
  <circle cx="130" cy="80" r="1" fill="white" opacity="0.5"/>
  <circle cx="700" cy="50" r="1.5" fill="white" opacity="0.7"/>
  <circle cx="750" cy="100" r="1" fill="white" opacity="0.5"/>
  <circle cx="80" cy="320" r="1.5" fill="white" opacity="0.6"/>
  <circle cx="720" cy="330" r="1" fill="white" opacity="0.5"/>
  <circle cx="40" cy="200" r="1" fill="white" opacity="0.4"/>
  <circle cx="760" cy="240" r="1" fill="white" opacity="0.4"/>
  <!-- Label -->
  <text x="400" y="355" text-anchor="middle" font-family="Inter, sans-serif" font-size="13" fill="#94a3b8">~27.000 detritos rastreados em órbita terrestre — Fonte: NORAD</text>
</svg>
